<svg id="Capa_1" data-name="Capa 1" xmlns="http://www.w3.org/2000/svg" viewBox="0 0 1152.99 318.44" height="50"><defs><style>.cls-1{fill:#0088cd;}</style></defs><title>ambito_logo_2020</title><path class="cls-1" d="M202.33,78.31h67.49V106h.86c9.95-20.76,30.29-33.74,56.25-33.74,20.33,0,47.15,3.89,57.54,35.9,16.44-27.26,32-35.9,58-35.9,39.81,0,61,19.89,61,64.89V312.37H433.36V152.73c0-16.88-7.35-26.83-20.34-26.83-13.4,0-25.1,10.38-25.1,33.31V312.37H317.84V152.73c0-16.88-7.36-26.83-20.34-26.83-13.41,0-25.09,10.38-25.09,33.31V312.37H202.33Z"/><path class="cls-1" d="M525.6,3.46h70.09V103.83h.86c11.68-25.09,32.88-31.57,52.36-31.57,57.54,0,67.92,52.34,67.92,125,0,87.39-25.09,121.15-72.24,121.15-31.16,0-45.44-18.62-50.63-34.63h-.86v28.56H525.6Zm93.89,263.91c26.39,0,27.26-35.9,27.26-73.54,0-42.4-1.3-70.53-26.82-70.53-23.81,0-25.54,32-25.54,73.56C594.39,242.28,598.73,267.37,619.49,267.37Z"/><path class="cls-1" d="M738.08,0h70.09V53.65H738.08Zm0,78.31h70.09V312.37H738.08Z"/><path class="cls-1" d="M849.28,126.76h-29V78.31h29V9.52h70.08V78.31h32.45v48.45H919.36V244.88c0,16.44,6.07,21.63,22.51,21.63a75.77,75.77,0,0,0,9.94-.86v46.72A314,314,0,0,1,911.57,315c-48.45,0-62.29-8.64-62.29-63.15Z"/><path class="cls-1" d="M960,196c0-70.1,15.57-123.74,96.48-123.74,85.66,0,96.47,52.34,96.47,122.44s-15.56,123.74-96.47,123.74C970.85,318.44,960,266.09,960,196ZM1057,118.12c-20.76,0-26.83,20.33-26.83,77,0,57.1,6.07,77.44,26.83,77.44,21.64,0,26-19.47,26-77C1082.91,137.58,1078.59,118.12,1057,118.12Z"/><path class="cls-1" d="M181.43,261.68V141.32c0-44.27-20.55-64.84-66.28-68.63L159.35,8.4H91.79L67.88,74.07c-13.76,2.19-25,6.29-35,13.11C16.45,98.44,6.93,117.93,6.5,150H68.85c.43-20.34,6.06-32,25.54-32,15.59,0,22.09,9.09,22.09,23.39,0,17.73-3.9,21.21-25.12,26.83-19.49,5.2-45.46,9.53-62.78,19S0,219.68,0,247c0,50.67,23,71.45,62.36,71.45,23.37,0,45.46-12.13,55-32.91h.87c.43,9.09,1.3,18.61,3.9,26.84h67.54C181.43,302,181.43,279.45,181.43,261.68Zm-65.38-23.81c0,23.38-13.42,32-28.15,32-13,0-20.35-11.26-20.35-29.88,0-13,3.46-20.35,10.82-26,6.5-5.21,16-5.63,38.11-17.32C116.48,206.25,116.05,218.39,116.05,237.87Z"/></svg>